<svg width="412" height="375" viewBox="0 0 412 375" fill="none" xmlns="http://www.w3.org/2000/svg">
<path d="M158.04 226.886L151.69 232.571L139.441 204.492L147.484 197.291L174.042 212.561L167.692 218.246L148.891 206.785L148.721 206.936L158.04 226.886ZM149.2 219.396L161.137 208.709L165.079 213.112L153.141 223.799L149.2 219.396ZM176.13 210.692L156.726 189.018L166.124 180.604C167.775 179.126 169.36 178.108 170.88 177.548C172.407 176.982 173.819 176.848 175.117 177.148C176.422 177.442 177.567 178.139 178.552 179.239C179.266 180.037 179.74 180.921 179.975 181.893C180.216 182.859 180.222 183.845 179.992 184.852C179.756 185.851 179.294 186.811 178.606 187.732L178.795 187.944C179.758 187.146 180.816 186.624 181.97 186.379C183.117 186.128 184.258 186.181 185.392 186.538C186.519 186.889 187.541 187.576 188.456 188.599C189.518 189.784 190.151 191.117 190.358 192.597C190.572 194.071 190.347 195.581 189.685 197.127C189.023 198.673 187.905 200.15 186.332 201.559L176.13 210.692ZM177.807 200.725L180.559 198.262C181.547 197.378 182.123 196.531 182.289 195.722C182.448 194.906 182.202 194.135 181.551 193.408C181.097 192.9 180.595 192.574 180.046 192.429C179.498 192.285 178.926 192.314 178.331 192.516C177.744 192.711 177.15 193.077 176.55 193.614L173.714 196.153L177.807 200.725ZM170.455 192.513L172.868 190.353C173.383 189.892 173.765 189.403 174.015 188.887C174.265 188.371 174.364 187.863 174.311 187.364C174.259 186.852 174.033 186.373 173.636 185.929C173.036 185.258 172.338 184.962 171.542 185.038C170.74 185.108 169.972 185.471 169.239 186.128L166.741 188.364L170.455 192.513ZM207.332 163.236C209.492 165.649 210.845 168.105 211.391 170.603C211.931 173.094 211.785 175.48 210.955 177.761C210.118 180.035 208.719 182.05 206.758 183.806C204.782 185.575 202.615 186.746 200.256 187.32C197.898 187.88 195.511 187.755 193.095 186.944C190.679 186.12 188.398 184.508 186.25 182.109C184.09 179.696 182.736 177.247 182.19 174.763C181.644 172.265 181.785 169.882 182.615 167.614C183.445 165.333 184.848 163.308 186.824 161.539C188.785 159.783 190.945 158.618 193.304 158.045C195.656 157.464 198.044 157.582 200.467 158.4C202.883 159.211 205.171 160.823 207.332 163.236ZM201.278 168.655C200.116 167.357 198.964 166.418 197.822 165.839C196.682 165.246 195.571 165.02 194.49 165.162C193.41 165.29 192.383 165.79 191.409 166.661C190.436 167.533 189.822 168.502 189.569 169.567C189.316 170.62 189.418 171.749 189.874 172.954C190.332 174.146 191.141 175.392 192.304 176.69C193.466 177.988 194.617 178.934 195.758 179.526C196.9 180.106 198.011 180.332 199.091 180.204C200.171 180.062 201.199 179.556 202.172 178.684C203.146 177.812 203.759 176.85 204.012 175.798C204.265 174.732 204.163 173.603 203.706 172.411C203.25 171.206 202.44 169.954 201.278 168.655ZM213.179 138.479L219.063 133.211L231.494 147.096C232.972 148.747 233.856 150.529 234.146 152.443C234.436 154.344 234.173 156.25 233.357 158.164C232.534 160.07 231.195 161.853 229.339 163.514C227.469 165.188 225.542 166.329 223.557 166.937C221.565 167.538 219.641 167.589 217.784 167.091C215.928 166.579 214.261 165.498 212.783 163.847L200.352 149.962L206.237 144.694L218.212 158.071C218.812 158.741 219.497 159.208 220.267 159.472C221.031 159.729 221.807 159.772 222.594 159.601C223.389 159.423 224.121 159.035 224.791 158.435C225.468 157.828 225.936 157.143 226.192 156.379C226.449 155.616 226.492 154.84 226.321 154.053C226.144 153.258 225.755 152.526 225.155 151.856L213.179 138.479ZM225.512 135.979L221.267 131.238L240.105 114.373L244.35 119.114L237.831 124.951L252.99 141.884L247.19 147.076L232.031 130.143L225.512 135.979Z" fill="#FF9D9B"/>
<path d="M156.303 28.4547L248.92 26.7439L324.98 79.837L355.432 167.454L328.644 256.129L254.848 311.99L162.231 313.701L86.1704 260.607L55.7185 172.99L82.5069 84.3158L156.303 28.4547Z" stroke="#FF9D9B" stroke-width="4"/>
</svg>
