<svg width="180" height="205" viewBox="0 0 180 205" fill="none" xmlns="http://www.w3.org/2000/svg">
<g clip-path="url(#clip0_5_3)">
<path d="M52.2445 43.5932C71.657 34.839 83.5516 19.2746 78.8119 8.82914C74.0721 -1.61631 54.4927 -2.98734 35.0802 5.76685C15.6676 14.521 3.77302 30.0854 8.5128 40.5309C13.2526 50.9763 32.8319 52.3473 52.2445 43.5932Z" fill="#1D1D1B"/>
<path d="M90.0019 201.92C139.607 201.92 179.819 161.833 179.819 112.382C179.819 62.9311 139.607 22.8433 90.0019 22.8433C40.3973 22.8433 0.184814 62.9311 0.184814 112.382C0.184814 161.833 40.3973 201.92 90.0019 201.92Z" fill="white" stroke="#1D1D1B" stroke-miterlimit="10"/>
<path d="M131.153 192.631C163.923 175.553 182.698 146.852 173.088 128.526C163.478 110.201 129.122 109.19 96.3519 126.268C63.5819 143.347 44.8072 172.048 54.4174 190.373C64.0276 208.699 98.3835 209.71 131.153 192.631Z" fill="#1D1D1B" stroke="white" stroke-miterlimit="10"/>
<path d="M120.824 123.102L111.298 127.983" stroke="#1D1D1B" stroke-miterlimit="10"/>
<path d="M121.914 127.441L112.388 132.326" stroke="#1D1D1B" stroke-miterlimit="10"/>
<path d="M118.917 140.195L109.395 145.079" stroke="#1D1D1B" stroke-miterlimit="10"/>
<path d="M110.481 133.409L100.955 138.294" stroke="#1D1D1B" stroke-miterlimit="10"/>
<path d="M80.2722 143.451L70.7458 148.332" stroke="#1D1D1B" stroke-miterlimit="10"/>
<path d="M94.9683 142.637L85.4419 147.518" stroke="#1D1D1B" stroke-miterlimit="10"/>
<path d="M107.214 139.922L97.688 144.807" stroke="#1D1D1B" stroke-miterlimit="10"/>
<path d="M117.421 137.48L107.894 142.364" stroke="#1D1D1B" stroke-miterlimit="10"/>
<path d="M103.131 145.009L93.6085 149.894" stroke="#1D1D1B" stroke-miterlimit="10"/>
<path d="M100.955 149.691L91.4282 154.572" stroke="#1D1D1B" stroke-miterlimit="10"/>
<path d="M113.748 150.233L104.221 155.118" stroke="#1D1D1B" stroke-miterlimit="10"/>
<path d="M111.501 146.976L101.975 151.861" stroke="#1D1D1B" stroke-miterlimit="10"/>
<path d="M112.525 156.746L102.998 161.627" stroke="#1D1D1B" stroke-miterlimit="10"/>
<path d="M110.821 173.43L101.295 178.315" stroke="#1D1D1B" stroke-miterlimit="10"/>
<path d="M121.027 173.43L111.501 178.315" stroke="#1D1D1B" stroke-miterlimit="10"/>
<path d="M118.374 179.943L108.848 184.828" stroke="#1D1D1B" stroke-miterlimit="10"/>
<path d="M117.968 185.844L108.441 190.729" stroke="#1D1D1B" stroke-miterlimit="10"/>
<path d="M115.924 191.543L106.398 196.428" stroke="#1D1D1B" stroke-miterlimit="10"/>
<path d="M106.738 179.943L97.2151 184.828" stroke="#1D1D1B" stroke-miterlimit="10"/>
<path d="M105.104 187.067L95.5818 191.948" stroke="#1D1D1B" stroke-miterlimit="10"/>
<path d="M103.678 192.965L94.1516 197.85" stroke="#1D1D1B" stroke-miterlimit="10"/>
<path d="M120.621 166.106L111.094 170.991" stroke="#1D1D1B" stroke-miterlimit="10"/>
<path d="M79.1822 189.506L69.6558 194.391" stroke="#1D1D1B" stroke-miterlimit="10"/>
<path d="M78.1623 195.614L68.6359 200.495" stroke="#1D1D1B" stroke-miterlimit="10"/>
<path d="M87.8919 150.505L78.3655 155.387" stroke="#1D1D1B" stroke-miterlimit="10"/>
<path d="M84.8987 158.643L75.3723 163.528" stroke="#1D1D1B" stroke-miterlimit="10"/>
<path d="M76.3257 165.156L66.7993 170.041" stroke="#1D1D1B" stroke-miterlimit="10"/>
<path d="M81.6321 157.221L72.1057 162.102" stroke="#1D1D1B" stroke-miterlimit="10"/>
<path d="M84.3518 166.243L74.8291 171.124" stroke="#1D1D1B" stroke-miterlimit="10"/>
<path d="M95.5818 156.882L86.0554 161.763" stroke="#1D1D1B" stroke-miterlimit="10"/>
<path d="M98.2349 158.643L88.7085 163.528" stroke="#1D1D1B" stroke-miterlimit="10"/>
<path d="M95.3748 167.801L85.8484 172.686" stroke="#1D1D1B" stroke-miterlimit="10"/>
<path d="M88.4351 168.818L78.9087 173.702" stroke="#1D1D1B" stroke-miterlimit="10"/>
<path d="M100.685 162.511L91.1586 167.396" stroke="#1D1D1B" stroke-miterlimit="10"/>
<path d="M66.7993 182.658L57.2729 187.539" stroke="#1D1D1B" stroke-miterlimit="10"/>
<path d="M86.192 175.942L76.6656 180.823" stroke="#1D1D1B" stroke-miterlimit="10"/>
<path d="M78.6389 183.063L69.1125 187.948" stroke="#1D1D1B" stroke-miterlimit="10"/>
<path d="M67.409 187.539L57.8864 192.423" stroke="#1D1D1B" stroke-miterlimit="10"/>
<path d="M109.258 164.747L99.7316 169.632" stroke="#1D1D1B" stroke-miterlimit="10"/>
<path d="M91.4984 183.063L81.972 187.948" stroke="#1D1D1B" stroke-miterlimit="10"/>
<path d="M93.335 188.353L83.8086 193.238" stroke="#1D1D1B" stroke-miterlimit="10"/>
<path d="M89.8651 196.085L80.3387 200.97" stroke="#1D1D1B" stroke-miterlimit="10"/>
<path d="M72.9224 157.015L63.396 161.9" stroke="#1D1D1B" stroke-miterlimit="10"/>
<path d="M68.2959 163.8L58.7695 168.681" stroke="#1D1D1B" stroke-miterlimit="10"/>
<path d="M68.8391 171.669L59.3127 176.55" stroke="#1D1D1B" stroke-miterlimit="10"/>
<path d="M66.1859 177.161L56.6595 182.046" stroke="#1D1D1B" stroke-miterlimit="10"/>
<path d="M77.0056 174.314L67.4792 179.199" stroke="#1D1D1B" stroke-miterlimit="10"/>
<path d="M78.6389 148.877L69.1125 153.762" stroke="#1D1D1B" stroke-miterlimit="10"/>
<path d="M96.3281 137.48L86.8018 142.364" stroke="#1D1D1B" stroke-miterlimit="10"/>
<path d="M90.6116 135.31L81.0889 140.195" stroke="#1D1D1B" stroke-miterlimit="10"/>
<path d="M105.855 130.156L96.3282 135.037" stroke="#1D1D1B" stroke-miterlimit="10"/>
<path d="M96.0547 129.884L105.581 124.999" stroke="#111212" stroke-miterlimit="10"/>
<path d="M77.2798 97.0006L76.3064 97.9473L82.9586 104.745L83.932 103.799L77.2798 97.0006Z" fill="#1D1D1B"/>
<path d="M80.2547 95.6646L79.2812 96.6112L85.9334 103.409L86.9068 102.463L80.2547 95.6646Z" fill="#1D1D1B"/>
<path d="M91.3376 100.466L92.6936 100.364L91.981 90.8942L90.6249 90.9956L91.3376 100.466Z" fill="#1D1D1B"/>
<path d="M88.3577 101.806L89.7137 101.705L89.0011 92.2343L87.6451 92.3358L88.3577 101.806Z" fill="#1D1D1B"/>
<path d="M54.9302 93.3697L30.8149 92.1577C30.6189 92.1309 30.4202 92.1827 30.2626 92.3019C30.1049 92.4211 30.0012 92.5978 29.9742 92.7932C29.9473 92.9886 29.9993 93.1867 30.1189 93.3438C30.2384 93.501 30.4157 93.6044 30.6117 93.6312L46.8228 97.2414C46.9372 97.2635 47.0448 97.3123 47.1366 97.3838C47.2285 97.4552 47.3022 97.5473 47.3515 97.6526C47.4009 97.7578 47.4246 97.8732 47.4207 97.9893C47.4168 98.1055 47.3854 98.219 47.3291 98.3207L36.5832 119.248L55.4845 94.5669C55.5704 94.4601 55.6248 94.3315 55.6414 94.1955C55.6581 94.0596 55.6364 93.9217 55.5789 93.7974C55.5213 93.673 55.4301 93.5671 55.3155 93.4916C55.201 93.416 55.0675 93.3738 54.9302 93.3697Z" fill="black"/>
<path d="M101.287 71.02L117.831 53.4888C117.955 53.333 118.136 53.2326 118.334 53.2098C118.532 53.187 118.731 53.2437 118.888 53.3673C119.044 53.4908 119.145 53.6713 119.168 53.8689C119.19 54.0665 119.134 54.265 119.01 54.4208L109.831 68.2204C109.763 68.3143 109.719 68.4227 109.702 68.5367C109.684 68.6508 109.694 68.7673 109.73 68.877C109.766 68.9867 109.827 69.0864 109.909 69.1681C109.99 69.2499 110.09 69.3114 110.2 69.3476L132.623 76.9547L132.483 77.0136L101.705 72.2799C101.567 72.2618 101.437 72.2054 101.33 72.1171C101.223 72.0288 101.143 71.9121 101.099 71.7806C101.056 71.649 101.05 71.5079 101.084 71.3734C101.117 71.2389 101.187 71.1164 101.287 71.02Z" fill="black"/>
</g>
<defs>
<clipPath id="clip0_5_3">
<rect width="180" height="205" fill="white"/>
</clipPath>
</defs>
</svg>
