<svg width="412" height="375" viewBox="0 0 412 375" fill="none" xmlns="http://www.w3.org/2000/svg">
<path d="M160.518 200.265L154.549 205.609C154.064 205.153 153.55 204.806 153.007 204.568C152.471 204.324 151.914 204.199 151.338 204.194C150.762 204.176 150.182 204.288 149.599 204.53C149.009 204.766 148.432 205.137 147.868 205.642C146.88 206.526 146.258 207.515 146.004 208.607C145.756 209.693 145.857 210.842 146.306 212.054C146.762 213.259 147.553 214.49 148.677 215.746C149.865 217.072 151.036 218.026 152.191 218.606C153.346 219.173 154.465 219.379 155.547 219.224C156.622 219.062 157.636 218.555 158.588 217.702C159.132 217.216 159.558 216.713 159.869 216.194C160.173 215.667 160.367 215.131 160.45 214.586C160.534 214.041 160.511 213.496 160.38 212.953C160.25 212.395 160.011 211.853 159.665 211.324L165.672 206.022C166.422 207.003 167.002 208.168 167.41 209.519C167.812 210.862 167.964 212.302 167.865 213.839C167.768 215.363 167.337 216.905 166.574 218.465C165.81 220.026 164.634 221.517 163.047 222.938C161.057 224.719 158.89 225.891 156.545 226.452C154.208 227.007 151.838 226.865 149.437 226.029C147.042 225.185 144.771 223.564 142.624 221.165C140.463 218.753 139.11 216.304 138.563 213.819C138.01 211.327 138.145 208.951 138.967 206.689C139.784 204.42 141.165 202.415 143.113 200.671C144.481 199.446 145.908 198.505 147.393 197.85C148.878 197.194 150.376 196.838 151.888 196.78C153.394 196.716 154.879 196.969 156.343 197.54C157.807 198.11 159.198 199.019 160.518 200.265ZM183.496 204.631C181.732 206.21 179.91 207.213 178.029 207.638C176.141 208.057 174.3 207.939 172.506 207.283C170.705 206.62 169.059 205.456 167.568 203.791C166.078 202.126 165.105 200.365 164.651 198.509C164.191 196.646 164.276 194.804 164.906 192.981C165.531 191.151 166.725 189.446 168.489 187.867C170.252 186.288 172.078 185.289 173.966 184.871C175.847 184.445 177.688 184.563 179.489 185.226C181.283 185.882 182.926 187.042 184.417 188.708C185.907 190.373 186.883 192.137 187.343 194C187.797 195.856 187.712 197.698 187.088 199.528C186.457 201.351 185.26 203.052 183.496 204.631ZM179.673 200.275C180.167 199.833 180.445 199.285 180.508 198.631C180.571 197.978 180.427 197.255 180.075 196.465C179.723 195.674 179.168 194.855 178.41 194.009C177.646 193.155 176.893 192.513 176.152 192.083C175.405 191.646 174.703 191.423 174.047 191.414C173.39 191.404 172.815 191.621 172.321 192.063C171.799 192.53 171.499 193.097 171.422 193.763C171.345 194.43 171.482 195.158 171.834 195.949C172.18 196.733 172.735 197.551 173.499 198.405C174.257 199.252 175.01 199.893 175.757 200.33C176.504 200.767 177.213 200.984 177.884 200.981C178.554 200.978 179.151 200.743 179.673 200.275ZM191.682 180.297L199.868 189.441L194.026 194.671L179.473 178.415L185.018 173.45L187.785 176.541L187.954 176.389C187.385 175.043 187.283 173.679 187.647 172.298C188.019 170.91 188.801 169.683 189.994 168.615C191.144 167.586 192.379 166.956 193.699 166.728C195.02 166.485 196.324 166.615 197.611 167.115C198.905 167.609 200.076 168.448 201.123 169.633L210.408 180.004L204.567 185.234L196.381 176.09C195.668 175.28 194.898 174.831 194.071 174.745C193.251 174.653 192.474 174.936 191.741 175.592C191.261 176.022 190.936 176.504 190.765 177.037C190.596 177.558 190.589 178.097 190.746 178.656C190.897 179.207 191.209 179.754 191.682 180.297ZM208.434 152.488L212.224 156.721L201.513 166.31L197.724 162.076L208.434 152.488ZM196.311 156.325L202.153 151.095L215.512 166.017C215.714 166.243 215.924 166.399 216.14 166.484C216.35 166.563 216.571 166.568 216.803 166.501C217.029 166.426 217.268 166.275 217.522 166.048C217.699 165.89 217.884 165.685 218.079 165.435C218.281 165.178 218.426 164.984 218.514 164.855L223.037 168.203C222.845 168.515 222.556 168.945 222.171 169.493C221.792 170.036 221.287 170.622 220.655 171.251C219.378 172.521 218.129 173.391 216.909 173.86C215.684 174.322 214.503 174.381 213.369 174.037C212.234 173.692 211.166 172.946 210.163 171.797L196.311 156.325ZM230.127 162.809C229.09 163.737 228.021 164.389 226.921 164.764C225.821 165.126 224.733 165.159 223.656 164.865C222.579 164.571 221.558 163.884 220.591 162.805C219.795 161.916 219.268 161.021 219.009 160.122C218.744 159.215 218.703 158.318 218.887 157.429C219.07 156.541 219.426 155.668 219.957 154.812C220.494 153.95 221.154 153.112 221.937 152.296C222.784 151.411 223.438 150.673 223.9 150.081C224.363 149.476 224.635 148.972 224.718 148.567C224.794 148.156 224.694 147.795 224.416 147.484L224.378 147.442C223.999 147.019 223.546 146.839 223.019 146.904C222.493 146.969 221.975 147.229 221.467 147.683C220.91 148.182 220.565 148.713 220.434 149.276C220.303 149.825 220.426 150.382 220.804 150.946L215.428 155.759C214.614 154.708 214.113 153.517 213.925 152.186C213.738 150.841 213.96 149.435 214.591 147.967C215.216 146.493 216.336 145.032 217.952 143.586C219.116 142.544 220.283 141.747 221.454 141.194C222.618 140.635 223.743 140.308 224.828 140.214C225.906 140.112 226.905 140.235 227.825 140.581C228.746 140.913 229.544 141.457 230.22 142.212L240.187 153.345L234.726 158.234L232.679 155.948L232.552 156.062C232.771 156.959 232.815 157.803 232.684 158.594C232.56 159.379 232.278 160.121 231.837 160.821C231.403 161.514 230.833 162.177 230.127 162.809ZM228.735 157.42C229.18 157.022 229.514 156.558 229.738 156.027C229.969 155.49 230.053 154.938 229.99 154.371C229.928 153.804 229.675 153.274 229.233 152.78L228.02 151.426C227.922 151.628 227.81 151.836 227.684 152.051C227.565 152.259 227.429 152.476 227.276 152.702C227.13 152.922 226.966 153.151 226.785 153.389C226.611 153.621 226.424 153.859 226.223 154.103C225.834 154.577 225.568 155.025 225.424 155.447C225.281 155.855 225.243 156.238 225.31 156.597C225.378 156.943 225.539 157.257 225.791 157.539C226.196 157.991 226.664 158.194 227.196 158.15C227.728 158.106 228.241 157.862 228.735 157.42ZM251.075 144.132C249.311 145.711 247.489 146.713 245.607 147.139C243.72 147.558 241.879 147.439 240.084 146.783C238.283 146.121 236.638 144.957 235.147 143.292C233.656 141.626 232.684 139.866 232.23 138.01C231.77 136.147 231.855 134.304 232.485 132.481C233.109 130.652 234.303 128.947 236.067 127.368C237.662 125.94 239.3 124.995 240.982 124.531C242.665 124.054 244.298 124.054 245.881 124.53C247.458 125 248.882 125.937 250.152 127.342L244.733 132.193C243.892 131.408 243.064 130.98 242.249 130.909C241.436 130.823 240.705 131.071 240.055 131.652C239.548 132.107 239.236 132.653 239.12 133.291C238.998 133.921 239.096 134.627 239.415 135.409C239.728 136.185 240.282 137.017 241.078 137.906C241.874 138.795 242.643 139.441 243.385 139.844C244.121 140.24 244.812 140.416 245.458 140.371C246.098 140.319 246.672 140.066 247.18 139.611C247.611 139.226 247.903 138.786 248.058 138.291C248.206 137.79 248.209 137.254 248.066 136.682C247.924 136.098 247.622 135.504 247.159 134.902L252.578 130.051C253.839 131.502 254.628 133.045 254.947 134.679C255.26 136.305 255.093 137.929 254.447 139.55C253.807 141.164 252.684 142.692 251.075 144.132ZM256.193 109.732L259.983 113.965L249.272 123.554L245.483 119.32L256.193 109.732ZM244.07 113.569L249.912 108.339L263.271 123.261C263.473 123.487 263.683 123.643 263.899 123.728C264.11 123.807 264.331 123.812 264.562 123.745C264.788 123.67 265.028 123.519 265.282 123.292C265.458 123.134 265.644 122.929 265.838 122.679C266.04 122.422 266.185 122.228 266.273 122.099L270.796 125.447C270.604 125.759 270.315 126.189 269.93 126.737C269.551 127.28 269.046 127.865 268.414 128.495C267.137 129.765 265.888 130.635 264.669 131.104C263.443 131.566 262.262 131.625 261.128 131.281C259.994 130.936 258.925 130.19 257.922 129.041L244.07 113.569Z" fill="#FF9D9B"/>
<path d="M156.303 28.4547L248.92 26.7439L324.98 79.837L355.432 167.454L328.644 256.129L254.848 311.99L162.231 313.701L86.1704 260.607L55.7185 172.99L82.5069 84.3158L156.303 28.4547Z" stroke="#FF9D9B" stroke-width="4"/>
</svg>
