<svg width="293" height="292" viewBox="0 0 293 292" fill="none" xmlns="http://www.w3.org/2000/svg">
<path d="M109.41 205.921L90.0064 184.247L95.8906 178.979L103.47 187.445L111.259 180.472L103.68 172.006L109.564 166.738L128.968 188.412L123.084 193.68L115.504 185.213L107.715 192.187L115.294 200.653L109.41 205.921ZM143.057 156.276C145.217 158.689 146.57 161.145 147.116 163.643C147.656 166.134 147.51 168.52 146.68 170.801C145.844 173.075 144.445 175.091 142.483 176.846C140.508 178.615 138.341 179.786 135.982 180.36C133.624 180.92 131.236 180.795 128.82 179.984C126.404 179.16 124.123 177.548 121.975 175.15C119.815 172.737 118.462 170.288 117.915 167.803C117.369 165.305 117.511 162.922 118.34 160.654C119.17 158.373 120.573 156.348 122.549 154.579C124.51 152.824 126.67 151.659 129.029 151.085C131.382 150.504 133.769 150.623 136.192 151.441C138.608 152.251 140.897 153.863 143.057 156.276ZM137.003 161.696C135.841 160.398 134.689 159.459 133.548 158.879C132.407 158.286 131.296 158.061 130.215 158.202C129.135 158.33 128.108 158.83 127.135 159.702C126.161 160.573 125.547 161.542 125.294 162.608C125.041 163.66 125.143 164.789 125.6 165.995C126.057 167.187 126.867 168.432 128.029 169.73C129.191 171.028 130.343 171.974 131.483 172.567C132.625 173.146 133.736 173.372 134.816 173.244C135.897 173.102 136.924 172.596 137.898 171.724C138.871 170.853 139.484 169.891 139.737 168.838C139.99 167.773 139.888 166.644 139.431 165.451C138.975 164.246 138.165 162.994 137.003 161.696ZM136.077 143.002L143.401 136.446L159.429 144.212L159.683 143.985L153.73 127.198L161.054 120.642L180.457 142.316L174.7 147.471L163.482 134.94L163.313 135.092L169.553 151.773L166.082 154.881L150.114 146.755L149.945 146.907L161.238 159.522L155.481 164.676L136.077 143.002ZM183.246 139.82L163.842 118.146L179.463 104.161L183.708 108.902L173.971 117.619L177.306 121.344L186.238 113.348L190.483 118.089L181.551 126.086L184.886 129.811L194.58 121.132L198.825 125.873L183.246 139.82Z" fill="#FF9D9B"/>
<path d="M111.387 44.5074L177.389 43.2882L231.593 81.1242L253.294 143.563L234.203 206.756L181.614 246.565L115.612 247.784L61.4081 209.948L39.707 147.509L58.7973 84.3161L111.387 44.5074Z" stroke="#FF9D9B" stroke-width="4"/>
</svg>
