<svg width="444" height="435" viewBox="0 0 444 435" fill="none" xmlns="http://www.w3.org/2000/svg">
<path d="M121.756 309.03C121.067 308.376 120.31 308.063 119.483 308.092C118.664 308.114 117.778 308.552 116.826 309.405C116.22 309.949 115.789 310.469 115.534 310.965C115.28 311.447 115.172 311.894 115.21 312.305C115.248 312.716 115.405 313.083 115.683 313.407C115.903 313.681 116.16 313.876 116.456 313.992C116.752 314.096 117.096 314.124 117.487 314.079C117.872 314.026 118.312 313.899 118.805 313.698C119.299 313.497 119.851 313.218 120.46 312.863L122.579 311.65C124.005 310.829 125.331 310.245 126.557 309.896C127.783 309.547 128.92 309.411 129.969 309.488C131.011 309.558 131.972 309.829 132.852 310.299C133.739 310.763 134.556 311.405 135.302 312.223C136.572 313.654 137.297 315.179 137.477 316.798C137.657 318.417 137.322 320.072 136.472 321.763C135.629 323.447 134.291 325.111 132.458 326.754C130.576 328.442 128.683 329.637 126.781 330.338C124.885 331.032 123.031 331.149 121.219 330.688C119.407 330.214 117.686 329.074 116.054 327.268L121.638 322.262C122.268 322.893 122.933 323.301 123.633 323.487C124.334 323.673 125.057 323.642 125.801 323.394C126.553 323.14 127.302 322.678 128.049 322.008C128.677 321.445 129.133 320.896 129.417 320.362C129.701 319.828 129.829 319.325 129.801 318.854C129.773 318.383 129.604 317.968 129.295 317.609C128.991 317.284 128.622 317.093 128.19 317.036C127.758 316.966 127.217 317.043 126.568 317.269C125.912 317.489 125.103 317.87 124.141 318.415L121.566 319.884C119.276 321.187 117.141 321.849 115.161 321.868C113.183 321.875 111.438 321.028 109.928 319.33C108.688 317.961 107.977 316.431 107.795 314.737C107.613 313.031 107.922 311.297 108.722 309.537C109.529 307.77 110.789 306.119 112.502 304.583C114.251 303.015 116.026 301.952 117.827 301.393C119.627 300.834 121.351 300.777 122.996 301.222C124.642 301.653 126.104 302.575 127.382 303.986L121.756 309.03ZM154.539 286.962C156.701 289.374 158.056 291.828 158.604 294.326C159.145 296.816 159.002 299.203 158.173 301.484C157.339 303.759 155.941 305.775 153.981 307.533C152.007 309.303 149.841 310.476 147.482 311.051C145.125 311.614 142.737 311.49 140.32 310.681C137.904 309.859 135.621 308.249 133.472 305.852C131.31 303.44 129.954 300.992 129.406 298.508C128.858 296.01 128.998 293.627 129.826 291.359C130.654 289.077 132.056 287.051 134.03 285.281C135.99 283.524 138.149 282.357 140.507 281.782C142.859 281.199 145.247 281.316 147.67 282.132C150.087 282.941 152.377 284.551 154.539 286.962ZM148.49 292.386C147.326 291.089 146.174 290.151 145.032 289.572C143.89 288.98 142.779 288.756 141.699 288.898C140.619 289.027 139.592 289.527 138.619 290.4C137.646 291.272 137.033 292.241 136.781 293.307C136.529 294.36 136.632 295.489 137.089 296.694C137.547 297.886 138.358 299.13 139.521 300.428C140.684 301.725 141.837 302.67 142.978 303.261C144.12 303.84 145.231 304.065 146.311 303.936C147.392 303.794 148.418 303.286 149.391 302.414C150.364 301.542 150.977 300.579 151.229 299.527C151.481 298.461 151.378 297.332 150.92 296.14C150.463 294.935 149.653 293.684 148.49 292.386ZM175.053 263.685L169.088 269.033C168.604 268.577 168.089 268.231 167.546 267.993C167.009 267.749 166.453 267.625 165.876 267.621C165.3 267.603 164.721 267.715 164.138 267.958C163.548 268.194 162.971 268.565 162.407 269.071C161.42 269.956 160.799 270.945 160.545 272.038C160.298 273.124 160.4 274.273 160.85 275.484C161.308 276.69 162.099 277.92 163.224 279.175C164.413 280.5 165.585 281.453 166.74 282.032C167.896 282.598 169.015 282.803 170.097 282.648C171.172 282.485 172.185 281.977 173.137 281.123C173.68 280.637 174.106 280.133 174.416 279.614C174.72 279.087 174.913 278.551 174.997 278.006C175.08 277.46 175.056 276.916 174.925 276.372C174.794 275.815 174.556 275.273 174.209 274.744L180.212 269.438C180.963 270.418 181.543 271.583 181.953 272.933C182.355 274.276 182.508 275.716 182.411 277.253C182.315 278.777 181.885 280.319 181.123 281.88C180.36 283.442 179.186 284.933 177.6 286.356C175.611 288.139 173.445 289.311 171.101 289.874C168.764 290.431 166.394 290.292 163.992 289.457C161.597 288.615 159.324 286.996 157.175 284.599C155.013 282.187 153.658 279.74 153.109 277.255C152.554 274.764 152.687 272.387 153.508 270.125C154.322 267.856 155.702 265.849 157.648 264.104C159.016 262.878 160.442 261.936 161.927 261.279C163.411 260.623 164.909 260.265 166.421 260.207C167.927 260.141 169.412 260.393 170.876 260.962C172.341 261.532 173.733 262.439 175.053 263.685ZM176.319 247.898L195.739 269.558L189.859 274.83L170.438 253.171L176.319 247.898ZM204.152 262.014L197.806 267.704L185.535 239.634L193.573 232.427L220.143 247.677L213.797 253.366L194.987 241.92L194.818 242.071L204.152 262.014ZM195.306 254.531L207.235 243.835L211.18 248.234L199.25 258.931L195.306 254.531ZM222.229 245.806L202.809 224.147L208.689 218.874L223.861 235.796L232.618 227.944L236.866 232.682L222.229 245.806ZM225.756 203.572L233.074 197.01L249.108 204.764L249.362 204.537L243.396 187.755L250.715 181.193L270.135 202.853L264.382 208.011L253.154 195.489L252.985 195.641L259.238 212.318L255.769 215.428L239.795 207.315L239.626 207.466L250.929 220.073L245.176 225.231L225.756 203.572ZM272.922 200.354L253.502 178.694L269.112 164.698L273.36 169.436L263.63 178.16L266.968 181.883L275.894 173.88L280.142 178.618L271.216 186.621L274.554 190.344L284.241 181.658L288.49 186.396L272.922 200.354ZM299.782 176.27L291.448 183.743L272.028 162.083L280.277 154.687C282.505 152.689 284.819 151.397 287.218 150.81C289.618 150.21 291.986 150.326 294.321 151.157C296.657 151.975 298.836 153.512 300.859 155.769C302.882 158.025 304.18 160.359 304.753 162.771C305.319 165.175 305.184 167.535 304.347 169.85C303.503 172.158 301.982 174.298 299.782 176.27ZM292.853 173.479L295.095 171.468C296.166 170.507 296.925 169.516 297.369 168.494C297.821 167.466 297.865 166.352 297.501 165.152C297.144 163.945 296.29 162.588 294.937 161.079C293.584 159.57 292.324 158.576 291.156 158.096C289.996 157.611 288.869 157.546 287.777 157.902C286.692 158.252 285.585 158.933 284.457 159.944L282.384 161.803L292.853 173.479ZM299.75 137.227L319.17 158.887L313.29 164.159L293.87 142.499L299.75 137.227ZM327.584 151.343L321.238 157.033L308.967 128.963L317.005 121.756L343.574 137.006L337.229 142.695L318.419 131.249L318.249 131.4L327.584 151.343ZM318.737 143.86L330.667 133.164L334.611 137.563L322.682 148.259L318.737 143.86Z" fill="#FF9D9B"/>
<path d="M174.799 69.845L275.219 63.7625L355.173 116.392L384.122 207.631L351.008 302.629L268.479 365.1L168.059 371.183L88.1044 318.553L59.1557 227.314L92.27 132.316L174.799 69.845Z" stroke="#FF9D9B" stroke-width="4"/>
</svg>
